<svg width="18" height="18" viewBox="0 0 18 18" fill="none" xmlns="http://www.w3.org/2000/svg">
<path d="M16.5 6.12176L16.5 6.17615C16.4999 6.82171 16.4999 7.14449 16.3445 7.40857C16.1891 7.67266 15.907 7.82942 15.3427 8.14293L14.7477 8.47349C15.1577 7.08738 15.2945 5.59811 15.345 4.32448C15.3472 4.26987 15.3497 4.21459 15.3521 4.15872L15.3538 4.11959C15.8423 4.28922 16.1165 4.41568 16.2876 4.65306C16.5 4.94769 16.5 5.33905 16.5 6.12176Z" fill="white"/>
<path d="M1.5 6.12176L1.5 6.17615C1.50002 6.82171 1.50003 7.14449 1.65542 7.40857C1.81081 7.67266 2.09297 7.82942 2.65729 8.14293L3.2526 8.47367C2.84255 7.08751 2.70575 5.59816 2.65519 4.32448C2.65302 4.26987 2.65058 4.21459 2.64811 4.15872L2.64638 4.1195C2.15775 4.28917 1.88344 4.41564 1.71232 4.65306C1.49997 4.94769 1.49998 5.33905 1.5 6.12176Z" fill="white"/>
<path fill-rule="evenodd" clip-rule="evenodd" d="M9.00012 1.5C10.3378 1.5 11.4398 1.61782 12.2828 1.76006C13.1369 1.90415 13.5639 1.9762 13.9207 2.41562C14.2775 2.85505 14.2586 3.32998 14.2209 4.27985C14.0915 7.54084 13.3877 11.614 9.5625 11.9743V14.625H10.6351C10.9927 14.625 11.3005 14.8773 11.3706 15.2279L11.5125 15.9375H13.5C13.8107 15.9375 14.0625 16.1893 14.0625 16.5C14.0625 16.8107 13.8107 17.0625 13.5 17.0625H4.5C4.18934 17.0625 3.9375 16.8107 3.9375 16.5C3.9375 16.1893 4.18934 15.9375 4.5 15.9375H6.4875L6.62942 15.2279C6.69953 14.8773 7.00734 14.625 7.36485 14.625H8.4375V11.9742C4.61247 11.6138 3.90877 7.54078 3.7793 4.27985C3.74159 3.32998 3.72274 2.85505 4.07952 2.41562C4.43631 1.9762 4.86334 1.90415 5.71738 1.76006C6.56043 1.61782 7.66246 1.5 9.00012 1.5ZM9.71427 4.64915L9.64054 4.51688C9.35554 4.00563 9.21304 3.75 9 3.75C8.78696 3.75 8.64446 4.00563 8.35946 4.51688L8.28573 4.64915C8.20474 4.79443 8.16425 4.86708 8.10111 4.91501C8.03797 4.96294 7.95934 4.98073 7.80207 5.01631L7.6589 5.04871C7.10547 5.17392 6.82875 5.23653 6.76292 5.44824C6.69709 5.65995 6.88573 5.88054 7.26302 6.32173L7.36063 6.43587C7.46785 6.56125 7.52145 6.62393 7.54557 6.70149C7.56969 6.77904 7.56158 6.86268 7.54537 7.02995L7.53061 7.18224C7.47357 7.77089 7.44505 8.06521 7.61741 8.19605C7.78976 8.32689 8.04885 8.2076 8.56703 7.96901L8.70108 7.90729C8.84833 7.83949 8.92196 7.80559 9 7.80559C9.07804 7.80559 9.15167 7.83949 9.29892 7.90729L9.43297 7.96901C9.95115 8.2076 10.2102 8.32689 10.3826 8.19605C10.5549 8.06521 10.5264 7.77088 10.4694 7.18224L10.4546 7.02995C10.4384 6.86268 10.4303 6.77904 10.4544 6.70149C10.4785 6.62393 10.5322 6.56125 10.6394 6.43587L10.737 6.32173C11.1143 5.88054 11.3029 5.65995 11.2371 5.44824C11.1712 5.23653 10.8945 5.17392 10.3411 5.04871L10.1979 5.01631C10.0407 4.98073 9.96203 4.96294 9.89889 4.91501C9.83575 4.86708 9.79526 4.79444 9.71427 4.64915Z" fill="white"/>
</svg>
