<svg width="14" height="12" viewBox="0 0 14 12" fill="none" xmlns="http://www.w3.org/2000/svg">
<path fill-rule="evenodd" clip-rule="evenodd" d="M12.1551 3.18407C12.1191 3.18179 12.0798 3.18181 12.0391 3.18182L12.0289 3.18182H10.4326C9.11682 3.18182 7.99096 4.21754 7.99096 5.56819C7.99096 6.91883 9.11682 7.95455 10.4326 7.95455H12.0289L12.0391 7.95455C12.0798 7.95457 12.1191 7.95458 12.1551 7.95231C12.6896 7.91856 13.1622 7.50032 13.202 6.91614C13.2046 6.87783 13.2046 6.83654 13.2045 6.79827L13.2045 6.78788V4.34849L13.2045 4.3381C13.2046 4.29983 13.2046 4.25854 13.202 4.22023C13.1622 3.63606 12.6896 3.21782 12.1551 3.18407ZM10.2911 6.20455C10.6298 6.20455 10.9044 5.91964 10.9044 5.56818C10.9044 5.21673 10.6298 4.93182 10.2911 4.93182C9.95232 4.93182 9.6777 5.21673 9.6777 5.56818C9.6777 5.91964 9.95232 6.20455 10.2911 6.20455Z" fill="white"/>
<path fill-rule="evenodd" clip-rule="evenodd" d="M12.0387 8.9091C12.1336 8.90664 12.2054 8.99452 12.1796 9.08587C12.0519 9.53925 11.8491 9.92566 11.5238 10.251C11.0475 10.7273 10.4436 10.9386 9.69756 11.0389C8.97261 11.1364 8.04629 11.1364 6.87681 11.1364H5.53228C4.3628 11.1364 3.43649 11.1364 2.71153 11.0389C1.96544 10.9386 1.36157 10.7273 0.885337 10.251C0.409106 9.7748 0.197759 9.17092 0.0974498 8.42483C-1.78462e-05 7.69988 -9.84569e-06 6.77357 2.05821e-07 5.60408V5.53228C-9.92155e-06 4.3628 -1.79979e-05 3.43649 0.0974496 2.71153C0.197758 1.96544 0.409105 1.36157 0.885337 0.885337C1.36157 0.409106 1.96544 0.197759 2.71153 0.0974499C3.43649 -1.76945e-05 4.3628 -9.7319e-06 5.53228 2.8168e-07L6.87681 2.0582e-07C8.0463 -9.92155e-06 8.97261 -1.79979e-05 9.69756 0.0974496C10.4436 0.197758 11.0475 0.409105 11.5238 0.885337C11.8491 1.2107 12.0519 1.59711 12.1796 2.05048C12.2054 2.14184 12.1335 2.22974 12.0387 2.22728L10.4326 2.22728C8.62742 2.22728 7.03635 3.65331 7.03635 5.56819C7.03635 7.48307 8.62742 8.9091 10.4326 8.9091L12.0387 8.9091ZM2.38636 2.54545C2.12277 2.54545 1.90909 2.75914 1.90909 3.02273C1.90909 3.28632 2.12277 3.5 2.38636 3.5H4.93182C5.19541 3.5 5.40909 3.28632 5.40909 3.02273C5.40909 2.75914 5.19541 2.54545 4.93182 2.54545H2.38636Z" fill="white"/>
</svg>
