<svg width="18" height="18" viewBox="0 0 18 18" fill="none" xmlns="http://www.w3.org/2000/svg">
<path fill-rule="evenodd" clip-rule="evenodd" d="M9 0.9375C8.68934 0.9375 8.4375 1.18934 8.4375 1.5V9.72942L7.17708 8.25893C6.97491 8.02306 6.6198 7.99574 6.38393 8.19792C6.14806 8.40009 6.12074 8.7552 6.32292 8.99107L8.57292 11.6161C8.67978 11.7407 8.83579 11.8125 9 11.8125C9.16421 11.8125 9.32022 11.7407 9.42708 11.6161L11.6771 8.99107C11.8793 8.7552 11.8519 8.40009 11.6161 8.19792C11.3802 7.99574 11.0251 8.02306 10.8229 8.25893L9.5625 9.72942L9.5625 1.5C9.5625 1.18934 9.31066 0.9375 9 0.9375Z" fill="#22E0A2"/>
<path d="M10.6875 6.75V7.03371C11.2377 6.8398 11.8734 6.93682 12.3482 7.34375C13.0558 7.95028 13.1377 9.0156 12.5312 9.72321L10.2812 12.3482C9.96062 12.7222 9.49259 12.9375 8.99997 12.9375C8.50735 12.9375 8.03932 12.7222 7.71872 12.3482L5.46872 9.72321C4.8622 9.0156 4.94415 7.95028 5.65176 7.34375C6.12651 6.93683 6.76227 6.8398 7.31247 7.03371V6.75H6C3.87868 6.75 2.81802 6.75 2.15901 7.40901C1.5 8.06802 1.5 9.12868 1.5 11.25V12C1.5 14.1213 1.5 15.182 2.15901 15.841C2.81802 16.5 3.87868 16.5 5.99999 16.5H12C14.1213 16.5 15.182 16.5 15.841 15.841C16.5 15.182 16.5 14.1213 16.5 12V11.25C16.5 9.12868 16.5 8.06802 15.841 7.40901C15.182 6.75 14.1213 6.75 12 6.75H10.6875Z" fill="#22E0A2"/>
</svg>
