<svg width="13" height="13" viewBox="0 0 13 13" fill="none" xmlns="http://www.w3.org/2000/svg">
<path fill-rule="evenodd" clip-rule="evenodd" d="M5.88504 0C2.74227 0.233025 0.233025 2.74227 0 5.88504H1.89672C2.16104 5.88504 2.37532 6.09931 2.37532 6.36364C2.37532 6.62796 2.16104 6.84223 1.89672 6.84223H0C0.233024 9.985 2.74227 12.4942 5.88504 12.7273V10.8306C5.88504 10.5662 6.09931 10.352 6.36364 10.352C6.62796 10.352 6.84223 10.5662 6.84223 10.8306V12.7273C9.985 12.4942 12.4942 9.985 12.7273 6.84223H10.8306C10.5662 6.84223 10.352 6.62796 10.352 6.36364C10.352 6.09931 10.5662 5.88504 10.8306 5.88504H12.7273C12.4942 2.74227 9.985 0.233024 6.84223 0V1.89672C6.84223 2.16104 6.62796 2.37532 6.36364 2.37532C6.09931 2.37532 5.88504 2.16104 5.88504 1.89672V0ZM4.60878 6.36364C4.60878 6.09931 4.82305 5.88504 5.08737 5.88504H5.88504V5.08737C5.88504 4.82305 6.09931 4.60878 6.36364 4.60878C6.62796 4.60878 6.84223 4.82305 6.84223 5.08737V5.88504H7.6399C7.90422 5.88504 8.1185 6.09931 8.1185 6.36364C8.1185 6.62796 7.90422 6.84223 7.6399 6.84223H6.84223V7.6399C6.84223 7.90422 6.62796 8.1185 6.36364 8.1185C6.09931 8.1185 5.88504 7.90422 5.88504 7.6399V6.84223H5.08737C4.82305 6.84223 4.60878 6.62796 4.60878 6.36364Z" fill="white"/>
</svg>
