<svg width="21" height="21" viewBox="0 0 21 21" fill="none" xmlns="http://www.w3.org/2000/svg">
<path fill-rule="evenodd" clip-rule="evenodd" d="M1.77409 10.4814C2.07033 10.778 2.07004 11.2586 1.77343 11.5548L1.61779 11.7103C1.48483 11.8431 1.48483 12.058 1.61779 12.1908C1.75125 12.3241 1.96801 12.3241 2.10147 12.1908L3.8136 10.4807C4.1102 10.1845 4.59079 10.1848 4.88704 10.4814C5.18328 10.778 5.18298 11.2586 4.88638 11.5548L3.17426 13.2648C2.4481 13.9901 1.27116 13.9901 0.545 13.2648C-0.181666 12.5391 -0.181667 11.362 0.545 10.6362L0.700647 10.4807C0.99725 10.1845 1.47784 10.1848 1.77409 10.4814ZM6.68665 11.4896C6.98307 11.7861 6.98307 12.2667 6.68665 12.5631L4.54424 14.7055C4.24782 15.0019 3.76723 15.0019 3.4708 14.7055C3.17438 14.409 3.17438 13.9285 3.4708 13.632L5.61321 11.4896C5.90963 11.1932 6.39023 11.1932 6.68665 11.4896ZM9.4958 14.2953C9.79223 14.5918 9.79223 15.0724 9.4958 15.3688L7.36805 17.4965C7.07162 17.7929 6.59103 17.7929 6.29461 17.4965C5.99818 17.2001 5.99818 16.7195 6.29461 16.4231L8.42237 14.2953C8.71879 13.9989 9.19938 13.9989 9.4958 14.2953ZM6.29719 14.696C6.5903 14.9957 6.58495 15.4762 6.28525 15.7693L4.55508 17.4614C4.25538 17.7545 3.77481 17.7491 3.48171 17.4494C3.1886 17.1497 3.19395 16.6692 3.49365 16.3761L5.22382 14.684C5.52352 14.3909 6.00409 14.3963 6.29719 14.696ZM10.4811 16.118C10.7774 16.4146 10.7771 16.8952 10.4805 17.1915L8.76834 18.9015C8.63539 19.0343 8.63539 19.2492 8.76834 19.382C8.9018 19.5153 9.11857 19.5153 9.25203 19.382L9.40768 19.2265C9.70428 18.9303 10.1849 18.9306 10.4811 19.2272C10.7774 19.5238 10.7771 20.0044 10.4805 20.3006L10.3248 20.4561C9.59866 21.1813 8.42171 21.1813 7.69556 20.4561C6.96889 19.7303 6.96889 18.5532 7.69556 17.8274L9.40768 16.1174C9.70428 15.8211 10.1849 15.8214 10.4811 16.118Z" fill="white"/>
<path d="M9.84633 3.40912L7.65863 5.59023C7.2565 5.99113 6.88763 6.35888 6.59632 6.69132C6.40925 6.90481 6.2223 7.13847 6.06394 7.39666L6.04262 7.37541C6.00216 7.33507 5.98191 7.31487 5.96159 7.29516C5.58134 6.92621 5.13406 6.63287 4.64368 6.43084C4.61748 6.42004 4.59088 6.4095 4.53769 6.38842L4.21196 6.25936C3.77069 6.08451 3.65309 5.51645 3.98886 5.1817C4.9525 4.22099 6.10949 3.06751 6.66786 2.83584C7.1603 2.63152 7.69225 2.56354 8.20531 2.63936C8.67539 2.70883 9.1201 2.9503 9.84633 3.40912Z" fill="white"/>
<path d="M13.5818 14.8932C13.7581 15.0722 13.8752 15.1985 13.981 15.3336C14.1207 15.5118 14.2456 15.7011 14.3544 15.8995C14.4769 16.1229 14.5721 16.3615 14.7623 16.8388C14.9172 17.2273 15.4317 17.33 15.7306 17.032L15.8029 16.9599C16.7665 15.9992 17.9235 14.8457 18.1558 14.289C18.3608 13.7981 18.429 13.2677 18.3529 12.7562C18.2832 12.2876 18.0411 11.8443 17.581 11.1204L15.386 13.3088C14.9748 13.7188 14.5977 14.0948 14.2567 14.3893C14.0523 14.5658 13.8287 14.7422 13.5818 14.8932Z" fill="white"/>
<path fill-rule="evenodd" clip-rule="evenodd" d="M14.5023 12.3674L19.5319 7.35289C20.2563 6.63072 20.6185 6.26963 20.8092 5.81046C21 5.3513 21 4.84065 21 3.81937V3.33146C21 1.76099 21 0.975762 20.5106 0.487881C20.0213 0 19.2337 0 17.6585 0H17.1691C16.1447 0 15.6325 0 15.172 0.190194C14.7114 0.380388 14.3493 0.741471 13.6249 1.46364L8.59522 6.47817C7.74882 7.32202 7.224 7.84526 7.02078 8.35062C6.95657 8.5103 6.92446 8.6682 6.92446 8.83387C6.92446 9.52383 7.48138 10.0791 8.59522 11.1896L8.74492 11.3388L10.4985 9.55907C10.7486 9.30526 11.1571 9.30223 11.4109 9.55232C11.6647 9.8024 11.6678 10.2109 11.4177 10.4647L9.65872 12.2499L9.77663 12.3674C10.8905 13.4779 11.4474 14.0331 12.1394 14.0331C12.2924 14.0331 12.4387 14.006 12.5858 13.9518C13.1048 13.7607 13.6345 13.2325 14.5023 12.3674ZM16.8652 6.47854C16.2127 7.12904 15.1548 7.12904 14.5024 6.47854C13.8499 5.82803 13.8499 4.77335 14.5024 4.12284C15.1548 3.47233 16.2127 3.47233 16.8652 4.12284C17.5177 4.77335 17.5177 5.82803 16.8652 6.47854Z" fill="white"/>
</svg>
