<svg width="27" height="30" viewBox="0 0 27 30" fill="none" xmlns="http://www.w3.org/2000/svg">
<path fill-rule="evenodd" clip-rule="evenodd" d="M0.566273 4.62361C0 5.43042 0 7.82861 0 12.625V14.987C0 23.4442 6.35844 27.5482 10.3478 29.2909C11.43 29.7636 11.9711 30 13.5 30C15.0289 30 15.57 29.7636 16.6522 29.2909C20.6416 27.5482 27 23.4442 27 14.987V12.625C27 7.82861 27 5.43042 26.4337 4.62361C25.8675 3.81681 23.6125 3.04494 19.1026 1.50119L18.2434 1.20708C15.8925 0.402359 14.7171 0 13.5 0C12.2829 0 11.1075 0.402358 8.75659 1.20708L7.89737 1.50119C3.38749 3.04494 1.13255 3.81681 0.566273 4.62361ZM18.0892 12.7493C18.503 12.2858 18.4627 11.5746 17.9993 11.1608C17.5358 10.747 16.8246 10.7873 16.4108 11.2507L11.8929 16.3109L10.5892 14.8507C10.1754 14.3873 9.4642 14.347 9.00073 14.7608C8.53727 15.1746 8.49701 15.8858 8.91082 16.3493L11.0537 18.7493C11.2671 18.9883 11.5724 19.125 11.8929 19.125C12.2133 19.125 12.5186 18.9883 12.732 18.7493L18.0892 12.7493Z" fill="#10B981"/>
</svg>
