<svg width="32" height="32" viewBox="0 0 32 32" fill="none" xmlns="http://www.w3.org/2000/svg">
<path d="M9.67636 15.9061C9.61663 16.949 10.4156 17.8419 11.4534 17.9019C11.4908 17.9019 11.5281 17.9019 11.5654 17.9019C12.6108 17.9019 13.4545 17.054 13.447 16.0036C13.447 14.9532 12.6033 14.1054 11.558 14.1129C10.5574 14.1129 9.72863 14.9007 9.67636 15.9061Z" fill="#0033AD"/>
<path d="M2.64276 15.4184C2.30676 15.3959 2.01556 15.6585 2.00063 15.9961C1.98569 16.3338 2.23956 16.6264 2.57556 16.6414C2.91156 16.6639 3.19529 16.4013 3.21769 16.0637C3.24009 15.726 2.97876 15.4409 2.64276 15.4184Z" fill="#0033AD"/>
<path d="M9.55689 4.90674C9.85556 4.75668 9.97503 4.38153 9.82569 4.08141C9.67636 3.7813 9.30303 3.66125 9.00436 3.81131C8.70569 3.96137 8.58623 4.32901 8.73556 4.62913C8.88489 4.93675 9.25076 5.0643 9.55689 4.90674Z" fill="#0033AD"/>
<path d="M11.4684 8.26057C11.9313 8.02798 12.118 7.45775 11.8865 6.99257C11.655 6.52738 11.0876 6.33981 10.6246 6.5724C10.1617 6.80499 9.97503 7.37522 10.2065 7.8404C10.438 8.30559 11.0054 8.49316 11.4684 8.26057Z" fill="#0033AD"/>
<path d="M5.03209 10.564C5.39049 10.7966 5.86836 10.699 6.10729 10.3389C6.33876 9.97875 6.24169 9.49856 5.88329 9.25846C5.52489 9.02587 5.04703 9.12341 4.80809 9.48355C4.56916 9.84369 4.67369 10.3314 5.03209 10.564Z" fill="#0033AD"/>
<path d="M6.17449 15.0808C5.65183 15.0508 5.21129 15.4484 5.18143 15.9736C5.15156 16.4988 5.54729 16.9415 6.06996 16.9715C6.59263 17.0015 7.03316 16.6039 7.06303 16.0787C7.09289 15.561 6.69716 15.1108 6.17449 15.0808Z" fill="#0033AD"/>
<path d="M5.13663 21.4358C4.75583 21.6309 4.59903 22.096 4.79316 22.4862C4.98729 22.8688 5.45023 23.0264 5.83849 22.8313C6.21929 22.6363 6.37609 22.1711 6.18196 21.7809C5.98783 21.3983 5.51743 21.2407 5.13663 21.4358Z" fill="#0033AD"/>
<path d="M8.79529 13.1225C9.31049 13.4601 9.99743 13.3176 10.326 12.7999C10.662 12.2822 10.5201 11.5919 10.0049 11.2618C9.48969 10.9241 8.80276 11.0667 8.47423 11.5844C8.13823 12.0946 8.28009 12.7849 8.79529 13.1225Z" fill="#0033AD"/>
<path d="M20.406 8.18554C20.839 8.47065 21.4289 8.3506 21.7126 7.91543C21.9964 7.48026 21.8769 6.88752 21.4438 6.60241C21.0108 6.3173 20.4209 6.43735 20.1372 6.87252C19.846 7.31519 19.9654 7.90042 20.406 8.18554Z" fill="#0033AD"/>
<path d="M22.3324 4.84672C22.6161 5.03429 22.9894 4.95176 23.1761 4.66665C23.3628 4.38153 23.2806 4.00638 22.9969 3.81881C22.7132 3.63124 22.3398 3.71377 22.1532 3.99138C21.974 4.27649 22.0561 4.65914 22.3324 4.84672Z" fill="#0033AD"/>
<path d="M20.5478 14.0979C19.51 14.0379 18.614 14.8407 18.5617 15.8836C18.502 16.9265 19.3009 17.8268 20.3388 17.8794C20.3761 17.8794 20.4134 17.8794 20.4433 17.8794C21.4812 17.8794 22.3249 17.0315 22.3249 15.9811C22.3324 14.9832 21.5484 14.1504 20.5478 14.0979Z" fill="#0033AD"/>
<path d="M12.0881 12.9874C12.4092 13.6252 13.0588 14.0303 13.7756 14.0303C14.8134 14.0303 15.6572 13.1825 15.6572 12.1321C15.6572 11.8395 15.59 11.5469 15.4556 11.2768C14.9852 10.3389 13.8502 9.96374 12.9244 10.4364C11.991 10.9166 11.6177 12.0571 12.0881 12.9874Z" fill="#0033AD"/>
<path d="M26.8646 10.564C27.2454 10.3689 27.3948 9.89621 27.2006 9.51356C27.0065 9.13091 26.5361 8.98085 26.1553 9.17593C25.7745 9.37101 25.6252 9.83619 25.8118 10.2188C26.0134 10.6015 26.4764 10.7591 26.8646 10.564Z" fill="#0033AD"/>
<path d="M22.086 11.1642C21.5409 11.4418 21.3169 12.1096 21.5932 12.6573C21.8694 13.205 22.534 13.4301 23.079 13.1525C23.6241 12.8749 23.8481 12.2071 23.5718 11.6594C23.2956 11.1117 22.631 10.8941 22.086 11.1642Z" fill="#0033AD"/>
<path d="M15.926 4.5616C16.3516 4.58411 16.7174 4.25398 16.7473 3.82631C16.7772 3.39864 16.4412 3.031 16.0156 3.00099C15.59 2.97848 15.2241 3.30111 15.1942 3.72878C15.1718 4.16395 15.5004 4.53159 15.926 4.5616Z" fill="#0033AD"/>
<path d="M15.9185 9.46104C16.5308 9.49856 17.0534 9.02587 17.0833 8.41063C17.1206 7.79538 16.6502 7.27018 16.038 7.24016C15.4257 7.20265 14.903 7.67534 14.8732 8.29058C14.8433 8.90582 15.3062 9.43103 15.9185 9.46104Z" fill="#0033AD"/>
<path d="M9.91529 20.8355C10.4604 20.5579 10.6844 19.8902 10.4081 19.3425C10.1318 18.7947 9.46729 18.5696 8.92223 18.8473C8.37716 19.1249 8.15316 19.7926 8.42943 20.3403C8.70569 20.8881 9.37023 21.1132 9.91529 20.8355Z" fill="#0033AD"/>
<path d="M16.6353 11.0892C16.0678 11.967 16.3068 13.1375 17.1804 13.7077C18.054 14.2779 19.2188 14.0379 19.7862 13.16C20.3537 12.2822 20.1148 11.1117 19.2412 10.5415C18.935 10.3389 18.5766 10.2338 18.2108 10.2338C17.5761 10.2338 16.9862 10.5565 16.6353 11.0892Z" fill="#0033AD"/>
<path d="M19.9132 19.0123C19.4428 18.0744 18.3078 17.6993 17.382 18.172C16.4486 18.6447 16.0753 19.7851 16.5457 20.7155C17.0161 21.6534 18.151 22.0285 19.0769 21.5558C20.0028 21.0906 20.3836 19.9652 19.9206 19.0273C19.9206 19.0198 19.9206 19.0198 19.9132 19.0123Z" fill="#0033AD"/>
<path d="M23.206 18.8773C22.6908 18.5396 22.0038 18.6822 21.6753 19.1999C21.3393 19.7176 21.4812 20.4079 21.9964 20.738C22.5116 21.0756 23.1985 20.9331 23.527 20.4154C23.863 19.9052 23.7212 19.2149 23.206 18.8773Z" fill="#0033AD"/>
<path d="M26.8198 16.0336C26.8497 15.5084 26.454 15.0658 25.9313 15.0357C25.4086 15.0057 24.9681 15.4034 24.9382 15.9286C24.9084 16.4538 25.3041 16.8965 25.8268 16.9265C26.342 16.9565 26.79 16.5513 26.8198 16.0336Z" fill="#0033AD"/>
<path d="M29.4257 15.3584C29.0897 15.3359 28.7985 15.5985 28.7836 15.9361C28.7686 16.2737 29.0225 16.5664 29.3585 16.5814C29.6945 16.6039 29.9782 16.3413 30.0006 16.0036C30.0156 15.666 29.7617 15.3809 29.4257 15.3584Z" fill="#0033AD"/>
<path d="M26.9692 21.4358C26.6108 21.2032 26.1329 21.3007 25.894 21.6609C25.6625 22.021 25.7596 22.5012 26.118 22.7413C26.4764 22.9739 26.9542 22.8763 27.1932 22.5162C27.4321 22.1561 27.3276 21.6684 26.9692 21.4358Z" fill="#0033AD"/>
<path d="M9.66143 27.153C9.37769 26.9655 9.00436 27.048 8.81769 27.3256C8.63103 27.6107 8.71316 27.9859 8.98943 28.1734C9.27316 28.361 9.64649 28.2785 9.83316 28.0009C10.0273 27.7233 9.94516 27.3406 9.66143 27.153Z" fill="#0033AD"/>
<path d="M22.4444 27.093C22.1457 27.2431 22.0262 27.6182 22.1756 27.9183C22.3249 28.2185 22.6982 28.3385 22.9969 28.1885C23.2956 28.0384 23.415 27.6707 23.2657 27.3706C23.1164 27.063 22.7505 26.9355 22.4444 27.093Z" fill="#0033AD"/>
<path d="M15.366 20.9106C15.9334 20.0327 15.6945 18.8623 14.8209 18.2845C13.9473 17.7143 12.7825 17.9544 12.2076 18.8322C11.6326 19.7101 11.879 20.8806 12.7526 21.4583C13.0588 21.6609 13.4172 21.7659 13.783 21.7659C14.4252 21.7734 15.015 21.4508 15.366 20.9106Z" fill="#0033AD"/>
<path d="M11.5953 23.8142C11.1622 23.5291 10.5724 23.6492 10.2886 24.0843C10.0049 24.5195 10.1244 25.1122 10.5574 25.3973C10.9905 25.6825 11.5804 25.5624 11.8641 25.1272C12.1553 24.6921 12.0358 24.0993 11.5953 23.8142Z" fill="#0033AD"/>
<path d="M15.9932 27.4382C15.5676 27.4156 15.2017 27.7458 15.1718 28.1734C15.142 28.6011 15.478 28.9688 15.9036 28.9988C16.3292 29.0213 16.695 28.6987 16.7249 28.271C16.7473 27.8358 16.4188 27.4682 15.9932 27.4382Z" fill="#0033AD"/>
<path d="M16.0006 22.5387C15.3884 22.5012 14.8657 22.9739 14.8358 23.5891C14.7985 24.2044 15.2689 24.7296 15.8812 24.7596C16.4934 24.7896 17.0161 24.3244 17.046 23.7092C17.0833 23.1014 16.6129 22.5687 16.0006 22.5387Z" fill="#0033AD"/>
<path d="M20.5329 23.7392C20.07 23.9793 19.8833 24.5495 20.1222 25.0147C20.3612 25.4799 20.9286 25.6675 21.3916 25.4274C21.8545 25.1948 22.0412 24.6245 21.8097 24.1594C21.5708 23.6942 21.0033 23.4991 20.5329 23.7392Z" fill="#0033AD"/>
</svg>
