<svg width="32" height="32" viewBox="0 0 32 32" fill="none" xmlns="http://www.w3.org/2000/svg">
<path d="M25.8988 4.39923H29.9457L21.5238 12.7427C18.4739 15.7625 13.529 15.7625 10.4769 12.7427L2.05176 4.39923H6.10191L12.5004 10.7372C13.4326 11.6566 14.689 12.1719 15.9979 12.1719C17.3068 12.1719 18.5632 11.6566 19.4954 10.7372L25.8988 4.39923Z" fill="white"/>
<path d="M6.04961 27.599H2L10.4766 19.2042C13.5265 16.1843 18.4713 16.1843 21.5234 19.2042L30 27.599H25.9531L19.5 21.2096C18.5678 20.2903 17.3114 19.7749 16.0025 19.7749C14.6935 19.7749 13.4372 20.2903 12.5049 21.2096L6.04961 27.599Z" fill="white"/>
</svg>
