<svg width="32" height="32" viewBox="0 0 32 32" fill="none" xmlns="http://www.w3.org/2000/svg">
<rect x="0.5" y="0.5" width="31" height="31" rx="15.5" fill="url(#paint0_radial_44_1126)"/>
<rect x="0.5" y="0.5" width="31" height="31" rx="15.5" stroke="url(#paint1_linear_44_1126)"/>
<path d="M17.4365 22.2761C18.4246 20.414 21.7182 20.414 21.7182 20.414C25.1502 20.3782 25.6138 18.2944 25.9237 17.2412C25.369 21.7226 21.8494 25.2849 17.3885 25.9046C17.0659 25.2256 16.6837 23.6945 17.4365 22.2761Z" fill="white"/>
<path d="M9.00602 9.8339L8.59438 9.48184C8.56011 9.45252 8.52734 9.42182 8.49611 9.38985C6.94252 11.1521 6 13.466 6 16C6 21.4608 10.3771 25.8992 15.8142 25.9983C15.4608 24.9435 15.2302 23.234 16.1116 21.5732C16.9217 20.0465 18.5516 19.4456 19.5899 19.1903C20.1567 19.051 20.6778 18.9831 21.0542 18.9493C21.2442 18.9323 21.4018 18.9235 21.5156 18.919C21.5726 18.9168 21.6189 18.9156 21.6531 18.9149L21.6952 18.9143L21.7064 18.9143C23.0872 18.8991 23.6231 18.4916 23.8704 18.2132C24.1763 17.8688 24.2962 17.4605 24.4632 16.8917L24.4849 16.818C24.683 16.1447 25.3156 15.7093 25.9968 15.743C25.934 13.2535 24.9613 10.99 23.3989 9.27266C23.3673 9.45036 23.3297 9.61557 23.2921 9.76183C23.1225 10.4234 22.8378 11.1372 22.4884 11.6674C22.1465 12.1863 21.5392 12.6499 21.1355 12.94C20.8308 13.1589 20.5194 13.3408 20.2628 13.4887L20.1707 13.5417C19.939 13.675 19.7548 13.7811 19.5794 13.897C19.2234 14.1322 19.0099 14.3411 18.8652 14.6241C18.9532 14.9464 19.0157 15.3168 19.0167 15.7041C19.0191 16.6256 18.5474 17.3537 17.9836 17.8081C17.4289 18.2551 16.7112 18.5078 15.984 18.4999C13.0342 18.4677 11.304 16.0613 11.0812 13.5816C11.0164 12.8606 10.692 12.0837 10.2388 11.3599C9.798 10.6559 9.29975 10.1047 9.00602 9.8339Z" fill="white"/>
<path d="M12.5752 13.4474C12.3879 11.3632 10.7806 9.42105 10.0004 8.71053L9.56934 8.34189C11.3079 6.88037 13.5513 6 16.0004 6C18.2137 6 20.2592 6.7191 21.9158 7.93642C22.1498 8.64695 21.704 10.1316 21.2359 10.8421C21.0663 11.0995 20.6818 11.419 20.2602 11.7219C19.3097 12.4048 18.1102 12.7425 17.5004 14C17.326 14.3595 17.3335 14.7108 17.4173 15.0163C17.4776 15.2358 17.5161 15.4745 17.5167 15.708C17.5187 16.4629 16.7552 17.0082 16.0004 17C14.0361 16.9786 12.7502 15.3955 12.5752 13.4474Z" fill="white"/>
<defs>
<radialGradient id="paint0_radial_44_1126" cx="0" cy="0" r="1" gradientTransform="matrix(16.6815 -16 5.08173 62.05 15.3185 32)" gradientUnits="userSpaceOnUse">
<stop stop-color="#108961" stop-opacity="0.5"/>
<stop offset="1" stop-color="#0F172A" stop-opacity="0.2"/>
</radialGradient>
<linearGradient id="paint1_linear_44_1126" x1="16" y1="0" x2="16" y2="32" gradientUnits="userSpaceOnUse">
<stop stop-color="#0CE9A0"/>
<stop offset="1" stop-color="#108961"/>
</linearGradient>
</defs>
</svg>
