<svg width="14" height="14" viewBox="0 0 14 14" fill="none" xmlns="http://www.w3.org/2000/svg">
<path d="M9.62533 7.7508C8.18163 6.16662 6.41699 7.33521 6.41699 8.98301C6.41699 10.4757 7.47516 11.3367 8.37609 12.0698L8.40139 12.0904C8.48629 12.1595 8.56969 12.2275 8.65055 12.2949C8.98366 12.5722 9.30449 12.8333 9.62533 12.8333C9.94616 12.8333 10.267 12.5722 10.6001 12.2949C11.5441 11.5089 12.8337 10.6308 12.8337 8.98301C12.8337 8.44169 12.6432 7.95208 12.3363 7.5948C11.7089 6.86449 10.5948 6.68704 9.62533 7.7508Z" fill="#22E0A2"/>
<path d="M4.72898 10.6438C3.09093 9.38175 1.16699 7.89942 1.16699 5.32979C1.16699 2.49308 4.37542 0.481337 7.00033 3.20852C9.62523 0.481337 12.8337 2.49308 12.8337 5.32979C12.8337 5.81604 12.7648 6.26336 12.642 6.67762C12.2226 6.34072 11.6967 6.1281 11.114 6.12483C10.5948 6.12192 10.0883 6.28492 9.6246 6.59737C8.81443 6.05322 7.90033 5.98004 7.09936 6.36672C6.14545 6.82724 5.54199 7.8576 5.54199 8.98281C5.54199 10.3275 6.21194 11.2708 6.90786 11.9544C6.35529 11.9106 5.80166 11.4834 5.228 11.0312C5.06641 10.9038 4.89924 10.775 4.72898 10.6438Z" fill="#22E0A2"/>
</svg>
