<svg width="11" height="12" viewBox="0 0 11 12" fill="none" xmlns="http://www.w3.org/2000/svg">
<path d="M10.5 5.83333C10.5 9.055 9.29117 11.6667 7.8 11.6667H3.3C3.80543 11.3391 4.26569 10.7629 4.58277 10.0778C5.09249 8.97655 5.4 7.47564 5.4 5.83333C5.4 4.19103 5.09249 2.69012 4.58277 1.58885C4.26569 0.903814 3.80543 0.327523 3.3 0H7.8C9.29117 0 10.5 2.61167 10.5 5.83333Z" fill="#22E0A2"/>
<path fill-rule="evenodd" clip-rule="evenodd" d="M0.764388 1.82823C0.296907 2.83822 0 4.25398 0 5.83333C0 7.41269 0.296907 8.82844 0.764388 9.83843C1.24454 10.8758 1.846 11.375 2.4 11.375C2.954 11.375 3.55546 10.8758 4.03561 9.83843C4.50309 8.82844 4.8 7.41269 4.8 5.83333C4.8 4.25398 4.50309 2.83822 4.03561 1.82823C3.55546 0.790865 2.954 0.291667 2.4 0.291667C1.846 0.291667 1.24454 0.790865 0.764388 1.82823ZM1.5 5.83333C1.5 7.76633 1.90294 9.33333 2.4 9.33333C2.85896 9.33333 3.23768 7.99735 3.29304 6.27083H2.7C2.45147 6.27083 2.25 6.07496 2.25 5.83333C2.25 5.59171 2.45147 5.39583 2.7 5.39583H3.29304C3.23768 3.66932 2.85896 2.33333 2.4 2.33333C1.90294 2.33333 1.5 3.90034 1.5 5.83333Z" fill="#22E0A2"/>
</svg>
