<svg width="32" height="32" viewBox="0 0 32 32" fill="none" xmlns="http://www.w3.org/2000/svg">
<path d="M10.3327 3.3335C10.3327 2.78121 9.88497 2.3335 9.33268 2.3335C8.7804 2.3335 8.33268 2.78121 8.33268 3.3335V5.43917C6.41357 5.59285 5.15371 5.97 4.22811 6.89559C3.30251 7.82119 2.92537 9.08106 2.77169 11.0002H29.227C29.0733 9.08106 28.6962 7.82119 27.7706 6.89559C26.845 5.97 25.5851 5.59285 23.666 5.43917V3.3335C23.666 2.78121 23.2183 2.3335 22.666 2.3335C22.1137 2.3335 21.666 2.78121 21.666 3.3335V5.3507C20.779 5.3335 19.7847 5.3335 18.666 5.3335H13.3327C12.214 5.3335 11.2197 5.3335 10.3327 5.3507V3.3335Z" fill="white" fill-opacity="0.6"/>
<path fill-rule="evenodd" clip-rule="evenodd" d="M2.66602 16.0002C2.66602 14.8814 2.66602 13.8872 2.68322 13.0002H29.3155C29.3327 13.8872 29.3327 14.8814 29.3327 16.0002V18.6668C29.3327 23.6951 29.3327 26.2093 27.7706 27.7714C26.2085 29.3335 23.6943 29.3335 18.666 29.3335H13.3327C8.30437 29.3335 5.79021 29.3335 4.22811 27.7714C2.66602 26.2093 2.66602 23.6951 2.66602 18.6668V16.0002ZM22.666 18.6668C23.4024 18.6668 23.9993 18.0699 23.9993 17.3335C23.9993 16.5971 23.4024 16.0002 22.666 16.0002C21.9296 16.0002 21.3327 16.5971 21.3327 17.3335C21.3327 18.0699 21.9296 18.6668 22.666 18.6668ZM22.666 24.0002C23.4024 24.0002 23.9993 23.4032 23.9993 22.6668C23.9993 21.9305 23.4024 21.3335 22.666 21.3335C21.9296 21.3335 21.3327 21.9305 21.3327 22.6668C21.3327 23.4032 21.9296 24.0002 22.666 24.0002ZM17.3327 17.3335C17.3327 18.0699 16.7357 18.6668 15.9993 18.6668C15.263 18.6668 14.666 18.0699 14.666 17.3335C14.666 16.5971 15.263 16.0002 15.9993 16.0002C16.7357 16.0002 17.3327 16.5971 17.3327 17.3335ZM17.3327 22.6668C17.3327 23.4032 16.7357 24.0002 15.9993 24.0002C15.263 24.0002 14.666 23.4032 14.666 22.6668C14.666 21.9305 15.263 21.3335 15.9993 21.3335C16.7357 21.3335 17.3327 21.9305 17.3327 22.6668ZM9.33268 18.6668C10.0691 18.6668 10.666 18.0699 10.666 17.3335C10.666 16.5971 10.0691 16.0002 9.33268 16.0002C8.5963 16.0002 7.99935 16.5971 7.99935 17.3335C7.99935 18.0699 8.5963 18.6668 9.33268 18.6668ZM9.33268 24.0002C10.0691 24.0002 10.666 23.4032 10.666 22.6668C10.666 21.9305 10.0691 21.3335 9.33268 21.3335C8.5963 21.3335 7.99935 21.9305 7.99935 22.6668C7.99935 23.4032 8.5963 24.0002 9.33268 24.0002Z" fill="white" fill-opacity="0.6"/>
</svg>
