<svg width="21" height="21" viewBox="0 0 21 21" fill="none" xmlns="http://www.w3.org/2000/svg">
<path d="M9.17594 13.2186C10.1162 13.467 12.1711 14.0097 12.4979 12.6969C12.8326 11.3547 10.84 10.9075 9.86747 10.6892C9.82985 10.6808 9.79375 10.6727 9.75937 10.6649C9.66241 10.6429 9.56462 10.7019 9.54055 10.7983L8.99496 12.9855C8.97088 13.082 9.0296 13.18 9.1258 13.2054C9.14213 13.2097 9.15886 13.2141 9.17594 13.2186Z" fill="white"/>
<path d="M10.0625 9.51192C10.8464 9.72112 12.5564 10.1775 12.8542 8.98427C13.1583 7.76391 11.4966 7.39599 10.685 7.21629C10.6636 7.21156 10.6428 7.20695 10.6226 7.20247C10.5256 7.18087 10.4278 7.24003 10.4038 7.33648L9.91718 9.28778C9.89312 9.38425 9.95172 9.48235 10.0478 9.50798C10.0527 9.50928 10.0576 9.51059 10.0625 9.51192Z" fill="white"/>
<path fill-rule="evenodd" clip-rule="evenodd" d="M7.95905 20.688C13.5854 22.0908 19.2833 18.6672 20.6858 13.0415C22.0884 7.41552 18.6649 1.71674 13.0389 0.314231C7.4143 -1.08828 1.71639 2.33566 0.314495 7.96197C-1.08863 13.5872 2.33505 19.2855 7.95905 20.688ZM12.8608 6.19519C12.8382 6.28574 12.8888 6.37836 12.9764 6.41032C14.3507 6.91126 15.3322 7.65784 15.1307 9.00501C15.0122 9.80677 14.6384 10.2844 14.1198 10.5371C13.9694 10.6104 13.9406 10.8531 14.0765 10.9507C14.8247 11.4878 15.1468 12.2684 14.7185 13.4916C14.1144 15.2181 12.7029 15.4089 10.8214 15.0775C10.7275 15.061 10.6361 15.1193 10.613 15.2118L10.2209 16.7835C10.1968 16.8799 10.0992 16.9386 10.0027 16.9145L9.19968 16.7145C9.10319 16.6904 9.04448 16.5927 9.06856 16.4962L9.45194 14.9603C9.47604 14.8638 9.41725 14.766 9.32079 14.7417C9.13498 14.6948 8.94652 14.646 8.75473 14.5949C8.65726 14.5689 8.55721 14.6276 8.53281 14.7255L8.14858 16.2668C8.12453 16.3633 8.02682 16.422 7.93036 16.3979L7.12862 16.1979C7.03219 16.1739 6.9735 16.0762 6.99752 15.9798L7.38765 14.4133C7.41157 14.3172 7.35346 14.2199 7.25767 14.195C7.20409 14.1811 7.15034 14.1671 7.0964 14.153C6.93578 14.1112 6.77352 14.0689 6.60931 14.0277L5.31587 13.7052C5.20796 13.6783 5.15002 13.561 5.19427 13.459L5.6202 12.477C5.65564 12.3952 5.74523 12.3517 5.83137 12.3743C5.89613 12.3913 5.9758 12.4122 6.05769 12.4334C6.21814 12.4749 6.84449 12.5519 6.95344 12.4269C6.99772 12.3762 7.02776 12.3189 7.0474 12.2701L7.77895 9.33729C7.79114 9.28841 7.84041 9.25857 7.88928 9.2708C7.90063 9.27364 7.9118 9.27643 7.92277 9.27916C7.85816 9.2532 7.81658 9.1861 7.83342 9.11854L8.3365 7.10052C8.33921 7.08962 8.34096 7.07852 8.34138 7.06729C8.3473 6.91116 8.31152 6.73188 8.1629 6.59376C8.04853 6.48747 7.56377 6.34654 7.41194 6.31019C7.31853 6.28782 7.22336 6.26546 7.1451 6.24721C7.047 6.22433 6.98665 6.12567 7.01099 6.02792L7.22967 5.14991C7.25371 5.0534 7.35145 4.99467 7.44794 5.01877L8.85933 5.37122C8.86098 5.37163 8.86199 5.37328 8.86162 5.37493C8.86125 5.37659 8.86227 5.37824 8.86391 5.37865C9.04702 5.42418 9.23443 5.46794 9.42486 5.51159C9.52034 5.53348 9.61572 5.47481 9.63944 5.37977L10.0254 3.83306C10.0495 3.73662 10.1472 3.67794 10.2436 3.70199L11.0459 3.90203C11.1424 3.92608 11.2011 4.02378 11.177 4.12025L10.8023 5.62273C10.7779 5.72055 10.8386 5.81931 10.9368 5.84184C11.1274 5.88552 11.318 5.92972 11.5062 5.97529C11.6029 5.99869 11.7006 5.94003 11.7246 5.84356L12.097 4.34971C12.121 4.25326 12.2187 4.19455 12.3152 4.21859L13.1182 4.41868C13.2146 4.44272 13.2733 4.54041 13.2493 4.63688L12.8608 6.19519Z" fill="white"/>
</svg>
