<svg width="22" height="22" viewBox="0 0 22 22" fill="none" xmlns="http://www.w3.org/2000/svg">
<path d="M11.5 0.75C11.5 0.335786 11.1642 0 10.75 0C10.3358 0 10 0.335786 10 0.75V3.75C10 4.16421 10.3358 4.5 10.75 4.5C11.1642 4.5 11.5 4.16421 11.5 3.75V0.75Z" fill="white"/>
<path fill-rule="evenodd" clip-rule="evenodd" d="M0.75 20H2.75V14.75C2.75 10.3317 6.33172 6.75 10.75 6.75C15.1683 6.75 18.75 10.3317 18.75 14.75V20H20.75C21.1642 20 21.5 20.3358 21.5 20.75C21.5 21.1642 21.1642 21.5 20.75 21.5H0.75C0.335786 21.5 0 21.1642 0 20.75C0 20.3358 0.335786 20 0.75 20ZM11.5 17.5493C11.9484 17.29 12.25 16.8052 12.25 16.25C12.25 15.4216 11.5784 14.75 10.75 14.75C9.92157 14.75 9.25 15.4216 9.25 16.25C9.25 16.8052 9.55165 17.29 10 17.5493V20H11.5V17.5493ZM12.3453 9.96859C12.5007 9.58464 12.938 9.39938 13.3219 9.5548C14.5129 10.0369 15.4629 10.9869 15.945 12.1778C16.1004 12.5618 15.9151 12.999 15.5312 13.1544C15.1472 13.3099 14.71 13.1246 14.5546 12.7407C14.2249 11.9262 13.5735 11.2749 12.7591 10.9452C12.3752 10.7898 12.1899 10.3525 12.3453 9.96859Z" fill="white"/>
<path d="M20.2803 4.21967C20.5732 4.51256 20.5732 4.98744 20.2803 5.28033L18.7803 6.78033C18.4874 7.07322 18.0126 7.07322 17.7197 6.78033C17.4268 6.48744 17.4268 6.01256 17.7197 5.71967L19.2197 4.21967C19.5126 3.92678 19.9874 3.92678 20.2803 4.21967Z" fill="white"/>
<path d="M2.28033 4.21967C1.98744 3.92678 1.51256 3.92678 1.21967 4.21967C0.926777 4.51256 0.926777 4.98744 1.21967 5.28033L2.71967 6.78033C3.01256 7.07322 3.48744 7.07322 3.78033 6.78033C4.07322 6.48744 4.07322 6.01256 3.78033 5.71967L2.28033 4.21967Z" fill="white"/>
</svg>
