<svg width="11" height="14" viewBox="0 0 11 14" fill="none" xmlns="http://www.w3.org/2000/svg">
<path d="M5.90625 6.56252C5.90625 6.33658 6.04143 6.13257 6.2495 6.0445C6.45757 5.95644 6.69813 6.00141 6.86033 6.1587L9.95408 9.1587C10.0633 9.26464 10.125 9.41033 10.125 9.56251C10.125 9.7147 10.0633 9.86039 9.95408 9.96633L6.86033 12.9663C6.69813 13.1236 6.45757 13.1686 6.2495 13.0805C6.04143 12.9925 5.90625 12.7885 5.90625 12.5625V10.125H0.5625C0.251841 10.125 2.75848e-07 9.87318 2.62269e-07 9.56252C2.48689e-07 9.25185 0.25184 9.00002 0.5625 9.00002L5.90625 9.00001L5.90625 6.56252Z" fill="white"/>
<path d="M4.21875 0.562514C4.21875 0.336579 4.08357 0.132568 3.8755 0.0445033C3.66743 -0.0435619 3.42687 0.00141199 3.26467 0.158695L0.170918 3.1587C0.061664 3.26464 -6.65222e-09 3.41033 0 3.56251C6.65222e-09 3.7147 0.0616641 3.86039 0.170918 3.96633L3.26467 6.96633C3.42687 7.12362 3.66743 7.16859 3.8755 7.08053C4.08357 6.99246 4.21875 6.78845 4.21875 6.56251V4.12502L9.5625 4.12501C9.87316 4.12501 10.125 3.87317 10.125 3.56251C10.125 3.25185 9.87316 3.00001 9.5625 3.00001L4.21875 3.00001V0.562514Z" fill="white"/>
</svg>
