<svg width="15" height="15" viewBox="0 0 15 15" fill="none" xmlns="http://www.w3.org/2000/svg">
<path fill-rule="evenodd" clip-rule="evenodd" d="M7.5 15C11.6421 15 15 11.6421 15 7.5C15 3.35786 11.6421 0 7.5 0C3.35786 0 0 3.35786 0 7.5C0 11.6421 3.35786 15 7.5 15ZM8.57699 4.09579C8.3242 3.91522 7.97289 3.97377 7.79232 4.22656C7.61175 4.47936 7.6703 4.83067 7.9231 5.01124L10.3393 6.73706C10.8627 7.11096 10.8627 7.88892 10.3393 8.26281L7.9231 9.98864C7.6703 10.1692 7.61175 10.5205 7.79232 10.7733C7.97289 11.0261 8.3242 11.0847 8.57699 10.9041L10.9932 9.17826C12.1447 8.3557 12.1447 6.64418 10.9932 5.82161L8.57699 4.09579ZM4.125 9.84888V5.15165C4.125 4.55263 4.79261 4.19534 5.29103 4.52761L8.81394 6.87623C9.25924 7.17309 9.25924 7.82744 8.81394 8.1243L5.29102 10.4729C4.79261 10.8052 4.125 10.4479 4.125 9.84888Z" fill="white"/>
</svg>
