<svg width="17" height="12" viewBox="0 0 17 12" fill="none" xmlns="http://www.w3.org/2000/svg">
<path d="M6.1875 7.5C7.43014 7.5 8.4375 8.50736 8.4375 9.75C8.4375 10.9926 7.43014 12 6.1875 12C4.94486 12 3.9375 10.9926 3.9375 9.75C3.9375 8.50736 4.94486 7.5 6.1875 7.5Z" fill="white"/>
<path d="M9.9375 0C8.69486 -5.43175e-08 7.6875 1.00736 7.6875 2.25C7.6875 3.49264 8.69486 4.5 9.9375 4.5C11.1801 4.5 12.1875 3.49264 12.1875 2.25C12.1875 1.00736 11.1801 5.43176e-08 9.9375 0Z" fill="white"/>
<path d="M5.8125 1.65639C6.12316 1.65639 6.375 1.90823 6.375 2.21889C6.375 2.52955 6.12316 2.78139 5.8125 2.78139L0.5625 2.78139C0.251839 2.78139 0 2.52955 0 2.21889C0 1.90823 0.251839 1.65639 0.5625 1.65639H5.8125Z" fill="white"/>
<path d="M10.3125 9.15639C10.0018 9.15639 9.75 9.40823 9.75 9.71889C9.75 10.0296 10.0018 10.2814 10.3125 10.2814H15.5625C15.8732 10.2814 16.125 10.0296 16.125 9.71889C16.125 9.40823 15.8732 9.15639 15.5625 9.15639H10.3125Z" fill="white"/>
<path d="M0 9.71889C0 9.40823 0.25184 9.15639 0.5625 9.15639H2.0625C2.37316 9.15639 2.625 9.40823 2.625 9.71889C2.625 10.0296 2.37316 10.2814 2.0625 10.2814H0.5625C0.25184 10.2814 0 10.0296 0 9.71889Z" fill="white"/>
<path d="M15.5625 1.65639C15.8732 1.65639 16.125 1.90823 16.125 2.21889C16.125 2.52955 15.8732 2.78139 15.5625 2.78139L14.0625 2.78139C13.7518 2.78139 13.5 2.52955 13.5 2.21889C13.5 1.90823 13.7518 1.65639 14.0625 1.65639H15.5625Z" fill="white"/>
</svg>
