<svg width="21" height="22" viewBox="0 0 21 22" fill="none" xmlns="http://www.w3.org/2000/svg">
<path d="M15.5995 18.4648L18.9128 15.2028L18.1825 14.4713L15.5995 17.0182L14.4853 15.8807L13.7538 16.618L15.5995 18.4648ZM3.23167 5.5195H15.4373V4.35283H3.2305L3.23167 5.5195ZM16.3333 21.1353C15.0337 21.1353 13.9312 20.6823 13.0258 19.7762C12.1197 18.8708 11.6667 17.7683 11.6667 16.4687C11.6667 15.169 12.1197 14.0661 13.0258 13.16C13.9319 12.2539 15.0344 11.8012 16.3333 11.802C17.6322 11.8028 18.7351 12.2554 19.642 13.16C20.5489 14.0646 21.0016 15.1674 21 16.4687C21 17.7675 20.5473 18.8701 19.642 19.7762C18.7351 20.6823 17.6322 21.1353 16.3333 21.1353ZM0 19.5638V1.88533C0 1.36267 0.183556 0.917778 0.550667 0.550667C0.917778 0.183556 1.36267 0 1.88533 0H16.7825C17.3036 0 17.7481 0.183556 18.116 0.550667C18.4831 0.917778 18.6667 1.36267 18.6667 1.88533V8.82C17.9729 8.59211 17.262 8.47505 16.534 8.46883C15.806 8.46261 15.0885 8.55633 14.3815 8.75H3.2305V9.91666H11.7612C11.1763 10.3219 10.6606 10.7975 10.2142 11.3435C9.76772 11.8895 9.39983 12.4907 9.1105 13.1472H3.23167V14.3138H8.72666C8.64266 14.6281 8.57733 14.945 8.53067 15.2647C8.484 15.5843 8.46028 15.918 8.4595 16.2657C8.4595 16.7984 8.51511 17.3269 8.62633 17.8512C8.73755 18.3754 8.90478 18.8806 9.128 19.3667L9.08833 19.4063L7.76416 18.4427L6.19383 19.5638L4.6235 18.4427L3.05317 19.5638L1.48167 18.4427L0 19.5638Z" fill="white"/>
</svg>
