<svg width="21" height="19" viewBox="0 0 21 19" fill="none" xmlns="http://www.w3.org/2000/svg">
<path d="M1.94459 16.3876V5.03951L0.0501826 0.874248C-0.0141866 0.725139 -0.0166311 0.567475 0.0428494 0.401256C0.10233 0.235036 0.206624 0.118928 0.355733 0.0529287C0.504841 -0.0130702 0.662912 -0.0163293 0.829947 0.0431512C0.996981 0.102632 1.11228 0.205704 1.17583 0.352368L3.26946 4.9784H17.7305L19.8242 0.35359C19.8885 0.204481 20.0038 0.100187 20.1701 0.040707C20.3371 -0.0187735 20.4952 -0.01307 20.6443 0.0578177C20.7934 0.119743 20.8977 0.233814 20.9572 0.400034C21.0166 0.566253 21.0142 0.724324 20.9498 0.874248L19.0554 5.03951V16.3876C19.0554 16.9303 18.8619 17.3947 18.4749 17.781C18.0878 18.1672 17.6234 18.3607 17.0816 18.3615H3.91845C3.37579 18.3615 2.91136 18.168 2.52514 17.781C2.13892 17.3939 1.94541 16.9287 1.94459 16.3876ZM8.0556 10.4184H12.9444C13.118 10.4184 13.263 10.3597 13.3795 10.2424C13.496 10.1251 13.5547 9.97964 13.5555 9.80609C13.5563 9.63254 13.4977 9.4875 13.3795 9.37099C13.2614 9.25447 13.1163 9.19581 12.9444 9.19499H8.0556C7.88205 9.19499 7.73701 9.25366 7.6205 9.37099C7.50398 9.48832 7.44531 9.63376 7.4445 9.80731C7.44368 9.98087 7.50235 10.1259 7.6205 10.2424C7.73864 10.3589 7.88368 10.4172 8.0556 10.4172" fill="white"/>
</svg>
